<svg width="90" height="90" viewBox="0 0 90 90" fill="none" xmlns="http://www.w3.org/2000/svg">
<path d="M44.55 82.7893C65.6517 82.7893 82.7581 65.6763 82.7581 44.5664C82.7581 23.4565 65.6517 6.34351 44.55 6.34351C23.4483 6.34351 6.34195 23.4565 6.34195 44.5664C6.34195 65.6763 23.4483 82.7893 44.55 82.7893Z" fill="#3792CF"/>
<path d="M44.55 82.7893C54.9631 82.7893 63.4045 65.6763 63.4045 44.5664C63.4045 23.4565 54.9631 6.34351 44.55 6.34351C34.1369 6.34351 25.6954 23.4565 25.6954 44.5664C25.6954 65.6763 34.1369 82.7893 44.55 82.7893Z" fill="#3792CF"/>
<path d="M18.5922 16.5286C25.4083 22.8458 34.5262 26.7118 44.55 26.7118C54.5737 26.7118 63.6916 22.8448 70.5078 16.5276C63.6916 10.2104 54.5737 6.34448 44.55 6.34448C34.5262 6.34448 25.4083 10.2104 18.5922 16.5286Z" fill="#FEE36F"/>
<path d="M18.5922 72.6052C25.4083 66.288 34.5262 62.4211 44.55 62.4211C54.5737 62.4211 63.6916 66.288 70.5078 72.6052C63.6916 78.9234 54.5737 82.7893 44.55 82.7893C34.5262 82.7893 25.4083 78.9234 18.5922 72.6052Z" fill="#6AC9CC"/>
<path d="M83.259 44.5664C83.259 33.3913 78.4971 23.3131 70.9028 16.2386C70.884 16.2128 70.8711 16.1831 70.8474 16.1603C68.4565 13.9447 65.8221 12.0687 63.0155 10.5411C62.9858 10.5253 62.9551 10.5094 62.9254 10.4926C62.4244 10.2213 61.9176 9.96096 61.4048 9.71247C61.3265 9.67485 61.2473 9.63723 61.1681 9.59961C60.7038 9.37785 60.2356 9.16599 59.7633 8.96304C59.6376 8.90958 59.5089 8.85711 59.3812 8.80365C58.9535 8.62644 58.5239 8.45517 58.0902 8.2938C57.919 8.22945 57.7467 8.16708 57.5735 8.10471C57.1794 7.96413 56.7824 7.82949 56.3835 7.70079C56.1726 7.63347 55.9617 7.56615 55.7499 7.5018C55.3826 7.39092 55.0133 7.28697 54.6431 7.18698C54.4015 7.12164 54.1599 7.0563 53.9164 6.99591C53.5669 6.90879 53.2145 6.82959 52.862 6.75237C52.5997 6.69495 52.3373 6.63555 52.072 6.58407C51.7285 6.51576 51.383 6.45735 51.0365 6.39894C50.7632 6.35241 50.491 6.3039 50.2158 6.26331C49.8614 6.21084 49.504 6.16926 49.1476 6.12669C48.8803 6.09501 48.6149 6.05838 48.3467 6.03264C47.9467 5.99304 47.5438 5.9673 47.1408 5.94057C46.9131 5.92572 46.6874 5.90394 46.4587 5.89305C45.8241 5.86236 45.1886 5.84454 44.55 5.84454C43.9115 5.84454 43.2759 5.86236 42.6413 5.89305C42.4126 5.90394 42.1869 5.92572 41.9592 5.94057C41.5562 5.9673 41.1543 5.99304 40.7534 6.03264C40.4851 6.05937 40.2188 6.09501 39.9524 6.12669C39.5951 6.16926 39.2387 6.21084 38.8842 6.26331C38.609 6.3039 38.3368 6.35241 38.0625 6.39894C37.717 6.45735 37.3715 6.51675 37.027 6.58407C36.7617 6.63654 36.4993 6.69495 36.237 6.75336C35.8845 6.83058 35.5331 6.90978 35.1826 6.9969C34.9391 7.05729 34.6975 7.12263 34.456 7.18797C34.0857 7.28796 33.7164 7.39191 33.3491 7.50279C33.1373 7.56714 32.9264 7.63347 32.7155 7.70178C32.3166 7.82949 31.9206 7.96413 31.5256 8.1057C31.3533 8.16807 31.181 8.23044 31.0098 8.29479C30.5762 8.45715 30.1465 8.62743 29.7188 8.80464C29.5911 8.8581 29.4634 8.91057 29.3357 8.96502C28.8635 9.16698 28.3952 9.37983 27.9309 9.60159C27.8527 9.63921 27.7735 9.67584 27.6943 9.71346C27.1824 9.96195 26.6756 10.2223 26.1736 10.4936C26.1439 10.5094 26.1132 10.5253 26.0835 10.5421C23.2769 12.0697 20.6425 13.9457 18.2516 16.1613C18.2279 16.1831 18.215 16.2138 18.1962 16.2395C10.6029 23.3131 5.841 33.3923 5.841 44.5664C5.841 55.7405 10.6029 65.8197 18.1972 72.8943C18.216 72.92 18.2289 72.9497 18.2526 72.9725C20.6435 75.1881 23.2779 77.0642 26.0845 78.5917C26.1142 78.6076 26.1449 78.6234 26.1746 78.6402C26.6756 78.9115 27.1824 79.1719 27.6953 79.4203C27.7735 79.458 27.8527 79.4946 27.9319 79.5322C28.3972 79.754 28.8654 79.9668 29.3377 80.1688C29.4644 80.2232 29.5911 80.2757 29.7188 80.3282C30.1465 80.5064 30.5771 80.6767 31.0118 80.839C31.183 80.9034 31.3553 80.9657 31.5275 81.0281C31.9216 81.1687 32.3186 81.3033 32.7175 81.432C32.9284 81.4993 33.1393 81.5667 33.3511 81.631C33.7184 81.7419 34.0877 81.8459 34.4579 81.9458C34.6995 82.0112 34.9411 82.0765 35.1846 82.1369C35.5341 82.224 35.8865 82.3032 36.239 82.3804C36.5023 82.4379 36.7646 82.4973 37.029 82.5497C37.3725 82.618 37.718 82.6765 38.0645 82.7349C38.3378 82.7814 38.61 82.8299 38.8862 82.8705C39.2406 82.923 39.598 82.9646 39.9544 83.0071C40.2217 83.0388 40.487 83.0754 40.7553 83.1012C41.1553 83.1408 41.5582 83.1665 41.9612 83.1932C42.1889 83.2081 42.4146 83.2299 42.6433 83.2408C43.2779 83.2715 43.9134 83.2893 44.552 83.2893C45.1905 83.2893 45.8261 83.2715 46.4607 83.2408C46.6894 83.2299 46.9151 83.2081 47.1428 83.1932C47.5457 83.1665 47.9477 83.1408 48.3486 83.1012C48.6169 83.0744 48.8832 83.0388 49.1495 83.0071C49.5069 82.9646 49.8633 82.923 50.2178 82.8705C50.493 82.8299 50.7652 82.7814 51.0385 82.7349C51.385 82.6765 51.7305 82.6171 52.074 82.5497C52.3383 82.4973 52.6007 82.4389 52.864 82.3814C53.2165 82.3042 53.5689 82.225 53.9184 82.1379C54.1619 82.0775 54.4035 82.0122 54.645 81.9468C55.0153 81.8468 55.3846 81.7429 55.7519 81.632C55.9637 81.5677 56.1746 81.5013 56.3855 81.433C56.7844 81.3053 57.1804 81.1707 57.5754 81.0291C57.7477 80.9667 57.92 80.9044 58.0912 80.84C58.5248 80.6777 58.9555 80.5074 59.3832 80.3292C59.5109 80.2757 59.6386 80.2232 59.7653 80.1688C60.2385 79.9658 60.7068 79.753 61.1711 79.5322C61.2493 79.4946 61.3285 79.458 61.4077 79.4203C61.9196 79.1719 62.4264 78.9115 62.9284 78.6402C62.9581 78.6244 62.9888 78.6086 63.0185 78.5917C65.8251 77.0642 68.4595 75.1881 70.8503 72.9725C70.8741 72.9507 70.887 72.92 70.9058 72.8943C78.4971 65.8207 83.259 55.7415 83.259 44.5664ZM82.2452 44.0665H63.8986C63.8501 36.5435 62.7244 29.5352 60.8167 23.623C64.3084 22.0023 67.5665 19.854 70.4811 17.2196C77.613 23.9903 82.1066 33.5091 82.2452 44.0665ZM59.2763 79.2917C59.198 79.3243 59.1198 79.355 59.0416 79.3877C58.5823 79.5797 58.1189 79.7629 57.6507 79.9371C57.5042 79.9916 57.3576 80.0421 57.2101 80.0945C56.8072 80.2391 56.4013 80.3767 55.9924 80.5074C55.7974 80.5697 55.6024 80.6282 55.4063 80.6875C55.04 80.7974 54.6718 80.9024 54.3015 81.0024C54.0728 81.0638 53.8441 81.1232 53.6144 81.1796C53.2699 81.2647 52.9224 81.3449 52.574 81.4201C52.3245 81.4746 52.074 81.5281 51.8235 81.5776C51.4859 81.6439 51.1454 81.7033 50.8048 81.7597C50.5454 81.8033 50.2861 81.8478 50.0257 81.8864C49.8871 81.9062 49.7465 81.9211 49.6079 81.9399C54.0896 79.5085 57.9308 73.9328 60.4989 66.4692C63.8372 68.0314 66.9577 70.0807 69.7524 72.5963C66.6755 75.3693 63.1412 77.6453 59.2763 79.2917ZM38.2942 81.7597C37.9536 81.7023 37.6131 81.6439 37.2755 81.5776C37.025 81.5281 36.7745 81.4746 36.5251 81.4201C36.1766 81.3439 35.8291 81.2647 35.4846 81.1796C35.2549 81.1232 35.0262 81.0638 34.7975 81.0024C34.4273 80.9034 34.059 80.7984 33.6927 80.6875C33.4967 80.6291 33.3016 80.5697 33.1066 80.5074C32.6977 80.3767 32.2918 80.2381 31.8889 80.0945C31.7424 80.0421 31.5949 79.9916 31.4483 79.9371C30.9801 79.7629 30.5168 79.5797 30.0574 79.3877C29.9792 79.355 29.901 79.3243 29.8228 79.2917C25.9578 77.6453 22.4235 75.3693 19.3446 72.5963C22.1394 70.0817 25.2608 68.0314 28.5981 66.4692C31.1662 73.9328 35.0074 79.5085 39.4891 81.9399C39.3505 81.9211 39.2099 81.9072 39.0713 81.8864C38.813 81.8478 38.5536 81.8033 38.2942 81.7597ZM29.8238 9.84216C29.902 9.80949 29.9802 9.7788 30.0584 9.74613C30.5177 9.55407 30.9811 9.37092 31.4493 9.19668C31.5959 9.14223 31.7424 9.09174 31.8899 9.03927C32.2928 8.89473 32.6987 8.75712 33.1076 8.62644C33.3026 8.56407 33.4976 8.50566 33.6937 8.44626C34.06 8.33637 34.4282 8.23143 34.7985 8.13144C35.0272 8.07006 35.2559 8.01066 35.4856 7.95423C35.8301 7.86909 36.1776 7.7889 36.5261 7.71366C36.7755 7.65921 37.026 7.60575 37.2765 7.55625C37.6141 7.48992 37.9546 7.43052 38.2952 7.37409C38.5546 7.33053 38.8139 7.28598 39.0743 7.24737C39.2129 7.22757 39.3535 7.21272 39.4921 7.19391C35.0104 9.62535 31.1692 15.201 28.6011 22.6646C25.2628 21.1024 22.1423 19.0531 19.3476 16.5375C22.4245 13.7645 25.9588 11.4885 29.8238 9.84216ZM50.8058 7.37409C51.1464 7.43151 51.4869 7.48992 51.8245 7.55625C52.075 7.60575 52.3255 7.65921 52.5749 7.71366C52.9234 7.78989 53.2709 7.86909 53.6154 7.95423C53.8451 8.01066 54.0738 8.07006 54.3025 8.13144C54.6728 8.23044 55.041 8.33538 55.4073 8.44626C55.6034 8.50467 55.7984 8.56407 55.9934 8.62644C56.4023 8.75712 56.8082 8.89572 57.2111 9.03927C57.3576 9.09174 57.5051 9.14223 57.6517 9.19668C58.1199 9.37092 58.5833 9.55407 59.0426 9.74613C59.1208 9.7788 59.199 9.80949 59.2772 9.84216C63.1422 11.4885 66.6765 13.7645 69.7554 16.5375C66.9606 19.0521 63.8392 21.1024 60.5019 22.6646C57.9338 15.201 54.0926 9.62535 49.6109 7.19391C49.7495 7.21272 49.8901 7.22658 50.0287 7.24737C50.2871 7.28499 50.5464 7.33053 50.8058 7.37409ZM59.6208 23.0725C55.0638 25.0624 50.1227 26.1336 45.0509 26.1999V6.87117C51.08 7.20579 56.3914 13.5388 59.6208 23.0725ZM44.0491 6.87117V26.1999C38.9773 26.1336 34.0362 25.0624 29.4792 23.0725C32.7086 13.5388 38.02 7.20579 44.0491 6.87117ZM44.0491 27.2008V44.0655H26.2023C26.2499 36.6821 27.3339 29.8065 29.1694 24.0209C33.8263 26.0425 38.8714 27.1345 44.0491 27.2008ZM44.0491 45.0674V61.932C38.8704 61.9983 33.8263 63.0903 29.1684 65.1109C27.3329 59.3263 26.2489 52.4508 26.2013 45.0664L44.0491 45.0674ZM44.0491 62.9339V82.2626C38.02 81.928 32.7086 75.595 29.4792 66.0613C34.0362 64.0714 38.9783 63.0002 44.0491 62.9339ZM45.0509 82.2626V62.9339C50.1227 63.0002 55.0638 64.0714 59.6208 66.0613C56.3914 75.595 51.08 81.928 45.0509 82.2626ZM45.0509 61.932V45.0674H62.8987C62.8511 52.4508 61.7671 59.3263 59.9316 65.1119C55.2737 63.0913 50.2286 61.9993 45.0509 61.932ZM45.0509 44.0665V27.2008C50.2296 27.1345 55.2737 26.0425 59.9316 24.0219C61.7671 29.8065 62.8511 36.6821 62.8987 44.0665H45.0509ZM18.6189 17.2196C21.5335 19.854 24.7916 22.0023 28.2833 23.623C26.3756 29.5343 25.25 36.5435 25.2014 44.0665H6.85476C6.99336 33.5091 11.487 23.9903 18.6189 17.2196ZM6.85476 45.0674H25.2014C25.25 52.5904 26.3756 59.5986 28.2833 65.5108C24.7916 67.1315 21.5335 69.2798 18.6189 71.9142C11.487 65.1436 6.99336 55.6247 6.85476 45.0674ZM70.4811 71.9142C67.5665 69.2798 64.3084 67.1315 60.8167 65.5108C62.7244 59.5996 63.8501 52.5904 63.8986 45.0674H82.2452C82.1066 55.6247 77.613 65.1436 70.4811 71.9142Z" fill="#136296"/>
<path d="M16.6439 10.9708C16.7557 10.9708 16.8676 10.9332 16.9607 10.8569C17.8616 10.1184 18.8031 9.40756 19.7594 8.74426C19.9861 8.58685 20.0425 8.275 19.8851 8.0473C19.7277 7.8196 19.4159 7.76317 19.1882 7.92157C18.21 8.59972 17.2478 9.32738 16.3261 10.0827C16.1122 10.258 16.0815 10.5738 16.2558 10.7876C16.3558 10.9084 16.4993 10.9708 16.6439 10.9708Z" fill="#136296"/>
<path d="M35.6628 1.89839C35.6964 1.89839 35.7301 1.89542 35.7637 1.88849C36.9022 1.65485 38.0665 1.46477 39.2228 1.32419C39.497 1.29053 39.693 1.04105 39.6584 0.766823C39.6247 0.492593 39.3802 0.297563 39.101 0.330233C37.918 0.474773 36.727 0.668812 35.5618 0.907402C35.2905 0.962842 35.1163 1.22717 35.1717 1.49843C35.2212 1.73603 35.4301 1.89839 35.6628 1.89839Z" fill="#136296"/>
<path d="M22.4671 6.93058C22.5522 6.93058 22.6383 6.9088 22.7175 6.86326C23.7263 6.27718 24.7688 5.72674 25.8162 5.22679C26.0657 5.10799 26.1716 4.80901 26.0518 4.55953C25.934 4.31005 25.6351 4.20412 25.3846 4.32292C24.3134 4.83475 23.2462 5.39707 22.2136 5.99701C21.975 6.13561 21.8929 6.44251 22.0315 6.6811C22.1265 6.84148 22.2948 6.93058 22.4671 6.93058Z" fill="#136296"/>
<path d="M0.68508 48.665C0.9603 48.6432 1.16622 48.4017 1.14444 48.1255C1.05039 46.9672 1.00287 45.7871 1.00089 44.6199C1.00089 44.3437 0.77616 44.1199 0.49995 44.1199C0.22374 44.1199 0 44.3447 0 44.6219C0.00099 45.8148 0.0504898 47.0216 0.14652 48.2067C0.1683 48.469 0.38709 48.667 0.64548 48.667C0.65835 48.666 0.67122 48.666 0.68508 48.665Z" fill="#136296"/>
<path d="M3.79565 27.8057C3.86 27.8325 3.92633 27.8463 3.99167 27.8463C4.1867 27.8463 4.37183 27.7315 4.45202 27.5414C4.90841 26.4672 5.4143 25.4 5.95385 24.3694C6.08255 24.1249 5.98751 23.822 5.74298 23.6933C5.49746 23.5646 5.19452 23.6596 5.06681 23.9041C4.51439 24.9585 3.99761 26.0505 3.53033 27.1494C3.42242 27.4038 3.54122 27.6978 3.79565 27.8057Z" fill="#136296"/>
<path d="M1.63844 34.5625C1.67804 34.5724 1.71764 34.5773 1.75724 34.5773C1.98296 34.5773 2.1869 34.4239 2.24333 34.1952C2.51855 33.0646 2.84525 31.931 3.21254 30.8242C3.29966 30.5619 3.1571 30.2787 2.89475 30.1916C2.6324 30.1045 2.34926 30.247 2.26214 30.5094C1.88693 31.641 1.5533 32.8012 1.27115 33.9576C1.20482 34.2259 1.37015 34.4971 1.63844 34.5625Z" fill="#136296"/>
<path d="M11.5394 15.8901C11.678 15.8901 11.8157 15.8326 11.9147 15.7208C12.6869 14.8476 13.5026 13.9952 14.3411 13.1874C14.5401 12.9953 14.5461 12.6785 14.355 12.4795C14.1629 12.2805 13.8452 12.2746 13.6472 12.4666C12.7888 13.2933 11.9543 14.1645 11.1652 15.0575C10.9821 15.2644 11.0019 15.5812 11.2088 15.7643C11.3028 15.8485 11.4216 15.8901 11.5394 15.8901Z" fill="#136296"/>
<path d="M0.597971 41.5756C0.610841 41.5766 0.624701 41.5766 0.637571 41.5766C0.895961 41.5766 1.11574 41.3776 1.13653 41.1153C1.22662 39.955 1.36621 38.7828 1.55035 37.6324C1.59391 37.3592 1.40779 37.1028 1.13554 37.0592C0.858341 37.0147 0.605891 37.2018 0.562331 37.475C0.374231 38.6521 0.231671 39.85 0.138611 41.0371C0.116831 41.3123 0.321761 41.5538 0.597971 41.5756Z" fill="#136296"/>
<path d="M7.01612 21.4856C7.09928 21.538 7.19135 21.5628 7.28342 21.5628C7.44974 21.5628 7.6121 21.4806 7.70714 21.3291C8.32886 20.3441 8.99909 19.3729 9.69902 18.4403C9.86435 18.2196 9.8198 17.9057 9.59903 17.7394C9.37727 17.5731 9.06344 17.6176 8.89811 17.8394C8.18234 18.7928 7.49726 19.7867 6.86069 20.7945C6.71219 21.0282 6.78248 21.3371 7.01612 21.4856Z" fill="#136296"/>
<path d="M87.5249 37.475C87.713 38.6244 87.8566 39.7956 87.9516 40.9559C87.9734 41.2182 88.1922 41.4162 88.4506 41.4162C88.4644 41.4162 88.4783 41.4162 88.4922 41.4143C88.7674 41.3915 88.9723 41.1499 88.9505 40.8747C88.8535 39.6877 88.706 38.4898 88.5139 37.3137C88.4694 37.0404 88.212 36.8563 87.9387 36.9008C87.6645 36.9444 87.4804 37.2018 87.5249 37.475Z" fill="#136296"/>
<path d="M77.0913 15.6139C77.1903 15.7247 77.3269 15.7822 77.4655 15.7822C77.5833 15.7822 77.7031 15.7406 77.7982 15.6554C78.0041 15.4713 78.0229 15.1555 77.8387 14.9486C77.0487 14.0596 76.2102 13.1903 75.3489 12.3657C75.1499 12.1756 74.8331 12.1815 74.641 12.3815C74.45 12.5815 74.4569 12.8983 74.6569 13.0894C75.4994 13.8952 76.3181 14.7446 77.0913 15.6139Z" fill="#136296"/>
<path d="M84.5876 27.3988C84.6688 27.5889 84.8539 27.7028 85.0479 27.7028C85.1143 27.7028 85.1806 27.6899 85.2449 27.6622C85.4984 27.5533 85.6162 27.2582 85.5073 27.0048C85.039 25.9128 84.5193 24.8238 83.9609 23.7695C83.8322 23.525 83.5293 23.4309 83.2847 23.5606C83.0402 23.6903 82.9471 23.9932 83.0768 24.2378C83.6213 25.2674 84.1292 26.3316 84.5876 27.3988Z" fill="#136296"/>
<path d="M81.3147 21.2054C81.4097 21.3549 81.5721 21.437 81.7374 21.437C81.8295 21.437 81.9225 21.4123 82.0057 21.3588C82.2393 21.2103 82.3076 20.9005 82.1591 20.6678C81.5196 19.664 80.8315 18.673 80.1138 17.7216C79.9475 17.5008 79.6326 17.4572 79.4129 17.6236C79.1921 17.7899 79.1485 18.1047 79.3149 18.3255C80.0178 19.2551 80.69 20.2243 81.3147 21.2054Z" fill="#136296"/>
<path d="M72.0284 10.7668C72.1215 10.8421 72.2324 10.8787 72.3433 10.8787C72.4888 10.8787 72.6333 10.8153 72.7323 10.6945C72.9066 10.4797 72.8749 10.1649 72.6601 9.98967C71.7344 9.23628 70.7682 8.5116 69.7891 7.83741C69.5604 7.68 69.2495 7.73841 69.0931 7.96611C68.9357 8.19381 68.9931 8.50566 69.2208 8.66307C70.1781 9.32142 71.1226 10.0293 72.0284 10.7668Z" fill="#136296"/>
<path d="M86.819 34.0398C86.8755 34.2674 87.0804 34.4199 87.3041 34.4199C87.3437 34.4199 87.3843 34.415 87.4249 34.4051C87.6932 34.3387 87.8566 34.0665 87.7902 33.7982C87.5021 32.6399 87.1646 31.4806 86.7864 30.354C86.6983 30.0916 86.4141 29.951 86.1528 30.0392C85.8904 30.1273 85.7498 30.4114 85.838 30.6728C86.2072 31.7746 86.5379 32.9072 86.819 34.0398Z" fill="#136296"/>
<path d="M49.7208 1.30541C50.8771 1.44203 52.0413 1.62815 53.1828 1.85684C53.2164 1.86377 53.2491 1.86674 53.2818 1.86674C53.5154 1.86674 53.7243 1.7024 53.7718 1.4648C53.8263 1.19354 53.6511 0.929207 53.3798 0.874757C52.2116 0.640127 51.0206 0.450047 49.8376 0.310457C49.5604 0.277787 49.3149 0.474797 49.2822 0.749027C49.2495 1.02425 49.4455 1.27274 49.7208 1.30541Z" fill="#136296"/>
<path d="M42.6967 1.04008C42.7037 1.04008 42.7106 1.04008 42.7175 1.04008C43.3224 1.01533 43.9332 1.00246 44.5332 1.00246C45.1024 1.0183 45.6638 1.01335 46.2251 1.03414C46.5161 1.04107 46.7339 0.829207 46.7438 0.552007C46.7547 0.275797 46.5389 0.0431465 46.2627 0.0322565C45.6944 0.0114665 45.1242 0.000576419 44.55 0.000576419C43.9322 -0.00338358 43.3006 0.0134465 42.6769 0.0391865C42.4007 0.0500765 42.1859 0.283716 42.1978 0.559926C42.2087 0.829206 42.4304 1.04008 42.6967 1.04008Z" fill="#136296"/>
<path d="M56.5884 2.68744C57.7071 3.0082 58.8268 3.37945 59.9168 3.79129C59.9752 3.81307 60.0346 3.82396 60.093 3.82396C60.2949 3.82396 60.485 3.70021 60.5613 3.50023C60.6593 3.24184 60.5286 2.95276 60.2692 2.85475C59.1555 2.434 58.01 2.05384 56.8646 1.72516C56.5993 1.64794 56.3221 1.80238 56.2449 2.06869C56.1696 2.33401 56.3231 2.61121 56.5884 2.68744Z" fill="#136296"/>
<path d="M63.1462 5.16146C64.1975 5.65844 65.243 6.20591 66.2548 6.78902C66.333 6.83456 66.4191 6.85535 66.5043 6.85535C66.6775 6.85535 66.8458 6.76526 66.9379 6.60488C67.0765 6.3653 66.9933 6.05939 66.7537 5.92079C65.7192 5.32481 64.649 4.76447 63.5739 4.2566C63.3224 4.1378 63.0254 4.24571 62.9066 4.49519C62.7898 4.74467 62.8967 5.04365 63.1462 5.16146Z" fill="#136296"/>
<path d="M28.8585 3.8794C28.9179 3.8794 28.9783 3.86851 29.0367 3.84673C30.1237 3.43192 31.2414 3.05671 32.3601 2.731C32.6255 2.65378 32.7779 2.37559 32.7007 2.11027C32.6235 1.84495 32.3453 1.69051 32.08 1.76971C30.9355 2.10235 29.7911 2.48647 28.6793 2.91118C28.4209 3.01018 28.2912 3.29926 28.3902 3.55765C28.4675 3.75664 28.6575 3.8794 28.8585 3.8794Z" fill="#136296"/>
<path d="M56.6884 86.4177C55.5697 86.7414 54.4243 87.0246 53.2838 87.2562C53.0125 87.3117 52.8383 87.576 52.8927 87.8463C52.9403 88.0839 53.1492 88.2472 53.3828 88.2472C53.4165 88.2472 53.4491 88.2442 53.4828 88.2373C54.649 87.9997 55.8212 87.7116 56.9666 87.38C57.2319 87.3027 57.3854 87.0256 57.3081 86.7592C57.2319 86.4939 56.9547 86.3405 56.6884 86.4177Z" fill="#136296"/>
<path d="M69.297 80.4193C68.3367 81.0835 67.3398 81.7152 66.3359 82.2963C66.0973 82.4349 66.0152 82.7408 66.1538 82.9804C66.2468 83.1408 66.4141 83.2299 66.5874 83.2299C66.6725 83.2299 66.7587 83.2081 66.8379 83.1625C67.8655 82.5676 68.8842 81.9211 69.8663 81.2419C70.094 81.0845 70.1504 80.7727 69.993 80.545C69.8366 80.3183 69.5237 80.2618 69.297 80.4193Z" fill="#136296"/>
<path d="M79.3703 70.7351C78.6704 71.6657 77.9229 72.5795 77.1507 73.4517C76.9676 73.6586 76.9864 73.9754 77.1933 74.1585C77.2883 74.2427 77.4071 74.2843 77.5249 74.2843C77.6625 74.2843 77.8001 74.2268 77.8991 74.1159C78.6892 73.224 79.4534 72.2894 80.1692 71.337C80.3355 71.1162 80.291 70.8024 80.0702 70.6361C79.8494 70.4698 79.5366 70.5153 79.3703 70.7351Z" fill="#136296"/>
<path d="M63.2353 83.9298C62.1839 84.4297 61.0998 84.8931 60.0128 85.3059C59.7544 85.4039 59.6247 85.693 59.7227 85.9524C59.799 86.1523 59.9891 86.2751 60.191 86.2751C60.2504 86.2751 60.3098 86.2642 60.3692 86.2424C61.481 85.8197 62.5898 85.3465 63.6659 84.8337C63.9154 84.7149 64.0213 84.4159 63.9025 84.1664C63.7837 83.9169 63.4857 83.81 63.2353 83.9298Z" fill="#136296"/>
<path d="M74.7212 75.9821C73.8817 76.7889 72.9986 77.572 72.0967 78.3096C71.8829 78.4848 71.8512 78.7996 72.0255 79.0145C72.1245 79.1352 72.268 79.1986 72.4135 79.1986C72.5254 79.1986 72.6373 79.162 72.7294 79.0857C73.651 78.3314 74.5539 77.5305 75.4133 76.7048C75.6122 76.5127 75.6192 76.1959 75.4271 75.9969C75.237 75.797 74.9202 75.791 74.7212 75.9821Z" fill="#136296"/>
<path d="M88.1159 51.139C87.8417 51.0935 87.5863 51.2806 87.5417 51.5538C87.3566 52.7062 87.122 53.8625 86.8448 54.9911C86.7785 55.2594 86.9428 55.5307 87.2111 55.597C87.2507 55.6069 87.2913 55.6119 87.3309 55.6119C87.5556 55.6119 87.7605 55.4594 87.816 55.2307C88.1001 54.0764 88.3397 52.8933 88.5298 51.7142C88.5743 51.44 88.3892 51.1826 88.1159 51.139Z" fill="#136296"/>
<path d="M88.5991 43.9586C88.3229 43.9586 88.0981 44.1823 88.0981 44.4595V44.5664C88.0981 45.7336 88.0516 46.9117 87.9595 48.071C87.9377 48.3462 88.1437 48.5878 88.4189 48.6096C88.4318 48.6106 88.4456 48.6106 88.4585 48.6106C88.7169 48.6106 88.9357 48.4116 88.9575 48.1492C89.0525 46.9662 89.1 45.7604 89.1 44.5664V44.4595C89.1 44.1833 88.8763 43.9586 88.5991 43.9586Z" fill="#136296"/>
<path d="M2.26909 55.0426C1.9909 53.915 1.75528 52.7587 1.56718 51.6063C1.52263 51.3341 1.26622 51.146 0.992976 51.1925C0.719736 51.237 0.534606 51.4945 0.579156 51.7667C0.771216 52.9458 1.01278 54.1279 1.29691 55.2822C1.35334 55.5099 1.55728 55.6633 1.78201 55.6633C1.82161 55.6633 1.8622 55.6584 1.9018 55.6485C2.17108 55.5822 2.33542 55.3109 2.26909 55.0426Z" fill="#136296"/>
<path d="M86.5052 58.0433C86.2409 57.9552 85.9597 58.0977 85.8726 58.3601C85.5043 59.4639 85.0855 60.5688 84.6282 61.6419C84.5193 61.8964 84.6381 62.1904 84.8925 62.2993C84.9568 62.327 85.0232 62.3399 85.0885 62.3399C85.2825 62.3399 85.4677 62.226 85.5489 62.035C86.0171 60.9371 86.4458 59.8075 86.822 58.6769C86.9081 58.4145 86.7666 58.1304 86.5052 58.0433Z" fill="#136296"/>
<path d="M83.7976 64.601C83.554 64.4723 83.2501 64.5664 83.1214 64.8109C82.5799 65.8415 81.9888 66.8632 81.3651 67.8482C81.2166 68.0819 81.2869 68.3918 81.5206 68.5393C81.6037 68.5917 81.6968 68.6175 81.7879 68.6175C81.9532 68.6175 82.1156 68.5353 82.2116 68.3848C82.8492 67.377 83.454 66.3316 84.0084 65.2772C84.1362 65.0327 84.0421 64.7307 83.7976 64.601Z" fill="#136296"/>
<path d="M9.75347 70.7658C9.58715 70.546 9.27431 70.5005 9.05156 70.6678C8.83079 70.8341 8.78723 71.1479 8.95355 71.3687C9.6713 72.3211 10.4366 73.2546 11.2256 74.1446C11.3246 74.2565 11.4622 74.3129 11.5998 74.3129C11.7176 74.3129 11.8364 74.2714 11.9325 74.1862C12.1394 74.0031 12.1582 73.6863 11.974 73.4794C11.2018 72.6101 10.4544 71.6974 9.75347 70.7658Z" fill="#136296"/>
<path d="M5.99939 64.8495C5.8697 64.605 5.56775 64.512 5.32322 64.6397C5.07869 64.7684 4.98464 65.0713 5.11334 65.3158C5.66774 66.3682 6.27263 67.4117 6.91118 68.4185C7.00622 68.569 7.16858 68.6512 7.3349 68.6512C7.42697 68.6512 7.52003 68.6264 7.60319 68.5729C7.83683 68.4244 7.90613 68.1156 7.75763 67.8819C7.13195 66.8989 6.54092 65.8782 5.99939 64.8495Z" fill="#136296"/>
<path d="M14.4055 76.0078C14.2055 75.8168 13.8887 75.8227 13.6976 76.0227C13.5056 76.2227 13.5125 76.5394 13.7125 76.7305C14.5728 77.5552 15.4767 78.3561 16.3983 79.1095C16.4914 79.1857 16.6033 79.2224 16.7142 79.2224C16.8597 79.2224 17.0032 79.16 17.1022 79.0382C17.2775 78.8244 17.2458 78.5086 17.031 78.3333C16.1301 77.5968 15.246 76.8147 14.4055 76.0078Z" fill="#136296"/>
<path d="M3.24521 58.4106C3.1571 58.1482 2.87396 58.0076 2.61161 58.0948C2.34926 58.1829 2.20769 58.466 2.2958 58.7284C2.67398 59.857 3.10265 60.9846 3.57092 62.0795C3.6521 62.2696 3.83723 62.3834 4.03127 62.3834C4.0976 62.3834 4.16393 62.3706 4.22828 62.3429C4.48271 62.234 4.60052 61.9399 4.49162 61.6855C4.03424 60.6153 3.61448 59.5134 3.24521 58.4106Z" fill="#136296"/>
<path d="M49.8237 87.8156C48.6714 87.9542 47.4963 88.0492 46.33 88.0967C46.0538 88.1076 45.839 88.3413 45.8499 88.6175C45.8608 88.8867 46.0825 89.0976 46.3498 89.0976C46.3568 89.0976 46.3637 89.0976 46.3706 89.0976C47.5636 89.0491 48.7664 88.9531 49.9445 88.8105C50.2188 88.7778 50.4148 88.5284 50.3811 88.2531C50.3475 87.9789 50.1019 87.7829 49.8237 87.8156Z" fill="#136296"/>
<path d="M42.8215 88.0987C41.6572 88.0532 40.4811 87.9601 39.3268 87.8225C39.0505 87.7918 38.803 87.9858 38.7704 88.2601C38.7377 88.5343 38.9337 88.7838 39.208 88.8165C40.388 88.958 41.5909 89.0521 42.7819 89.0986C42.7888 89.0986 42.7947 89.0986 42.8017 89.0986C43.069 89.0986 43.2907 88.8867 43.3016 88.6175C43.3125 88.3422 43.0977 88.1096 42.8215 88.0987Z" fill="#136296"/>
<path d="M35.8647 87.2661C34.7233 87.0345 33.5778 86.7543 32.4591 86.4316C32.1918 86.3563 31.9156 86.5088 31.8394 86.7741C31.7622 87.0394 31.9166 87.3176 32.1819 87.3938C33.3254 87.7235 34.4975 88.0106 35.6667 88.2472C35.7004 88.2541 35.7341 88.2571 35.7667 88.2571C36.0004 88.2571 36.2083 88.0938 36.2568 87.8552C36.3112 87.5849 36.136 87.3206 35.8647 87.2661Z" fill="#136296"/>
<path d="M29.1337 85.3237C28.0467 84.9119 26.9607 84.4496 25.9063 83.9486C25.6559 83.8298 25.3579 83.9367 25.2401 84.1862C25.1213 84.4357 25.2282 84.7347 25.4777 84.8535C26.5568 85.3653 27.6675 85.8385 28.7803 86.2603C28.8387 86.2821 28.8981 86.2929 28.9575 86.2929C29.1595 86.2929 29.3495 86.1692 29.4258 85.9692C29.5228 85.7108 29.3921 85.4217 29.1337 85.3237Z" fill="#136296"/>
<path d="M22.7997 82.3181C21.7939 81.737 20.7959 81.1063 19.8346 80.442C19.606 80.2846 19.2951 80.3421 19.1377 80.5698C18.9813 80.7975 19.0377 81.1093 19.2654 81.2667C20.2485 81.9458 21.2692 82.5913 22.2988 83.1853C22.377 83.2309 22.4631 83.2527 22.5482 83.2527C22.7215 83.2527 22.8898 83.1626 22.9819 83.0022C23.1214 82.7626 23.0393 82.4557 22.7997 82.3181Z" fill="#136296"/>
</svg>
