<?xml version="1.0" ?><svg viewBox="0 0 22.191 22.18" xmlns="http://www.w3.org/2000/svg"><g data-name="Layer 2" id="Layer_2"><g data-name="Layer 1" id="Layer_1-2"><path d="M10.7,21.508.679,21.487V3.237a2.564,2.564,0,0,1,5.128,0,.336.336,0,0,0,.336.336H18.611V5.328a.336.336,0,1,0,.672,0V3.573h2.564a.336.336,0,0,0,.336-.336A3.239,3.239,0,0,0,18.947,0H3.243A3.3,3.3,0,0,0,.007,3.243c.005.408,0,18.566,0,18.61-.006.219.323.339.338.3L10.7,22.18A.336.336,0,0,0,10.7,21.508ZM18.947.676A2.567,2.567,0,0,1,21.489,2.9H6.462A3.234,3.234,0,0,0,5.216.676ZM9.953,6.824H7.539a.336.336,0,0,1,0-.672H9.953a.336.336,0,0,1,0,.672Zm-6.71-.672h2.5a.336.336,0,0,1,0,.672h-2.5A.336.336,0,0,1,3.243,6.152Zm18.94,6.221c.135,2.182-1.475,4.081-2.394,5.847a13.479,13.479,0,0,0-.475,3.627.336.336,0,0,1-.672-.006,13.68,13.68,0,0,1,.535-3.9A15.963,15.963,0,0,1,20.12,16.3a5.971,5.971,0,0,0-4.482-9.8,5.88,5.88,0,0,0-5.873,5.873,5.637,5.637,0,0,1-1.428,2.49.589.589,0,0,0-.174.389c.234.361,1.512.773,1.426.769a.338.338,0,0,1,.212.358,9.18,9.18,0,0,0-.026,2.233c.057.3.859.517,1.908.517a1.07,1.07,0,0,1,1.148,1.112v1.6a.336.336,0,0,1-.672,0v-1.6c0-.292-.16-.44-.476-.44-2.816-.006-2.779-1-2.578-3.252-.373-.174-1.583-.607-1.6-1.182a1.209,1.209,0,0,1,.322-.937,6.1,6.1,0,0,0,1.27-2.1,6.545,6.545,0,0,1,13.09.042ZM19.35,15.182a.335.335,0,0,0,0-.393L18.6,13.762l.014-.033,1.255-.2c.425-.1.3-.688.34-1.022-.044-.336.085-.917-.34-1.022l-1.255-.2-.013-.033.746-1.029c.259-.5-.709-1.137-1.051-1.447a.336.336,0,0,0-.394,0l-1.029.746-.033-.014-.2-1.254a.335.335,0,0,0-.276-.279,4.6,4.6,0,0,0-1.491,0,.335.335,0,0,0-.277.279l-.2,1.255-.033.014-1.029-.747a.336.336,0,0,0-.393,0c-.344.309-1.311.941-1.053,1.448l.747,1.026-.014.034-1.254.2c-.425.1-.3.688-.341,1.022.044.334-.084.918.341,1.022l1.254.2.014.033-.746,1.029c-.26.5.71,1.138,1.051,1.447a.338.338,0,0,0,.394,0l1.028-.747.034.014.2,1.255c.107.426.682.295,1.022.339.334-.044.918.086,1.022-.34l.2-1.255.033-.014,1.029.746C18.411,16.5,19.044,15.522,19.35,15.182Zm-1.255.363-.985-.714c-.223-.169-.452.049-.675.107-.319.053-.287.894-.418,1.469a4,4,0,0,1-.8,0c-.13-.573-.1-1.415-.416-1.468-.23-.06-.451-.278-.677-.108l-.985.714a3.884,3.884,0,0,1-.562-.563L13.3,14c.169-.223-.051-.453-.108-.675-.052-.319-.9-.287-1.468-.417a3.921,3.921,0,0,1,0-.8c.572-.13,1.415-.1,1.468-.417.057-.221.278-.454.107-.676l-.715-.984a3.891,3.891,0,0,1,.563-.563l.985.714c.223.167.454-.049.676-.108.319-.051.287-.893.418-1.468a3.985,3.985,0,0,1,.8,0c.13.572.1,1.414.417,1.468.231.06.449.277.676.108l.985-.715a3.942,3.942,0,0,1,.563.563l-.715.986c-.17.22.052.458.107.673.052.322.895.288,1.468.419a3.773,3.773,0,0,1,0,.8c-.574.131-1.415.1-1.468.419-.054.214-.277.455-.107.675l.715.984A3.891,3.891,0,0,1,18.1,15.545Zm-2.476-4.494a1.456,1.456,0,0,0,0,2.912A1.456,1.456,0,0,0,15.619,11.051Zm0,2.241a.785.785,0,0,1,0-1.569A.785.785,0,0,1,15.619,13.292ZM8.161,9.848H3.243a.336.336,0,1,1,0-.672H8.161a.336.336,0,1,1,0,.672Zm-.9,3.024H3.243a.336.336,0,0,1,0-.672H7.265a.336.336,0,0,1,0,.672ZM3.243,15.224H5.949a.336.336,0,0,1,0,.672H3.243A.336.336,0,0,1,3.243,15.224Zm0,3.024h4.3a.336.336,0,0,1,0,.672h-4.3A.336.336,0,0,1,3.243,18.248Z" data-name="project management" id="project_management"/></g></g></svg>